<?xml version="1.0" encoding="utf-8"?>
<!-- Generator: Adobe Illustrator 27.8.1, SVG Export Plug-In . SVG Version: 6.00 Build 0)  -->
<svg version="1.1" id="Layer_1" xmlns="http://www.w3.org/2000/svg" xmlns:xlink="http://www.w3.org/1999/xlink" x="0px" y="0px"
	 viewBox="0 0 174 26" style="enable-background:new 0 0 174 26;" xml:space="preserve">
<style type="text/css">
	.st0{enable-background:new    ;}
	.st1{fill:#0F4C92;}
</style>
<g class="st0">
	<path class="st1" d="M12.8,11.1c0,3.2-2.4,5.2-6.3,5.2H4v3.7H0V5.9h6.5C10.4,5.9,12.8,7.9,12.8,11.1z M8.8,11.1
		c0-1.3-0.8-2.1-2.5-2.1H4v4.2h2.2C7.9,13.2,8.8,12.5,8.8,11.1z"/>
	<path class="st1" d="M14.2,13c0-4.3,3.4-7.4,7.9-7.4s7.9,3.1,7.9,7.4c0,4.3-3.4,7.4-7.9,7.4S14.2,17.3,14.2,13z M26,13
		c0-2.5-1.7-4.1-3.8-4.1c-2.2,0-3.8,1.6-3.8,4.1s1.7,4.1,3.8,4.1C24.3,17.1,26,15.5,26,13z"/>
	<path class="st1" d="M38.4,16.3h-2.2v3.8h-4V5.9h6.5c3.9,0,6.3,2,6.3,5.3c0,2.1-1,3.6-2.8,4.5l3.1,4.5H41L38.4,16.3z M38.4,9.1
		h-2.2v4.2h2.2c1.7,0,2.5-0.8,2.5-2.1C40.9,9.8,40.1,9.1,38.4,9.1z"/>
	<path class="st1" d="M50,9.1h-4.4V5.9h12.7v3.2h-4.4v11h-4V9.1z"/>
	<path class="st1" d="M59,13c0-4.3,3.4-7.4,7.9-7.4c4.6,0,7.9,3.1,7.9,7.4c0,4.3-3.4,7.4-7.9,7.4C62.3,20.4,59,17.3,59,13z M70.7,13
		c0-2.5-1.7-4.1-3.8-4.1c-2.2,0-3.8,1.6-3.8,4.1s1.7,4.1,3.8,4.1C69.1,17.1,70.7,15.5,70.7,13z"/>
	<path class="st1" d="M80.9,9v3.1h6.3v3.1h-6.3v4.9h-4V5.9h11.2V9H80.9z"/>
	<path class="st1" d="M89.1,13c0-4.3,3.4-7.4,7.9-7.4c4.6,0,7.9,3.1,7.9,7.4c0,4.3-3.4,7.4-7.9,7.4C92.5,20.4,89.1,17.3,89.1,13z
		 M100.9,13c0-2.5-1.7-4.1-3.8-4.1s-3.8,1.6-3.8,4.1s1.7,4.1,3.8,4.1S100.9,15.5,100.9,13z"/>
	<path class="st1" d="M107,5.9h4v11h6.8v3.2H107V5.9z"/>
	<path class="st1" d="M119.4,5.9h4v14.2h-4V5.9z"/>
	<path class="st1" d="M125.6,13c0-4.3,3.4-7.4,7.9-7.4c4.6,0,7.9,3.1,7.9,7.4c0,4.3-3.4,7.4-7.9,7.4C129,20.4,125.6,17.3,125.6,13z
		 M137.3,13c0-2.5-1.7-4.1-3.8-4.1s-3.8,1.6-3.8,4.1s1.7,4.1,3.8,4.1S137.3,15.5,137.3,13z"/>
	<path class="st1" d="M153.5,9v3.1h6.3v3.1h-6.3v4.9h-4V5.9h11.2V9H153.5z"/>
	<path class="st1" d="M165.6,9.1h-4.4V5.9H174v3.2h-4.4v11h-4V9.1z"/>
</g>
</svg>
